/* XPM */
static char *_6f7251260a54c01d61adf3923978f92t6rOdE18OoQhw8xj[] = {
/* columns rows colors chars-per-pixel */
"40 40 53 1 ",
"  c None",
". c #36464E",
"X c #36474E",
"o c #37474F",
"O c #3E4C4E",
"+ c #384850",
"@ c #394951",
"# c #3A4951",
"$ c #3F4F56",
"% c #585F4C",
"& c #414F58",
"* c #405057",
"= c #7A774A",
"- c #4F5D64",
"; c #878049",
": c #968B47",
"> c #918748",
", c #9C9047",
"< c #AA9A46",
"1 c #C1AA44",
"2 c #DBBD42",
"3 c #FED640",
"4 c #FFD740",
"5 c #8B959A",
"6 c #8E999E",
"7 c #909BA0",
"8 c #99A2A7",
"9 c #A2AAAF",
"0 c #C9CED1",
"q c #CED3D7",
"w c #D1D9DC",
"e c #D3DADD",
"r c #D5D9DD",
"t c #D4DBDE",
"y c #D5DCDF",
"u c #D7DEE1",
"i c #DADEE0",
"p c #D9E0E3",
"a c #DCE2E5",
"s c #DFE3E6",
"d c #DEE4E6",
"f c #DEE4E7",
"g c #DFE5E8",
"h c #E0E4E6",
"j c #E1E6E9",
"k c #E1E7E9",
"l c #E3E7E9",
"z c #E2E7EA",
"x c #E4E8EA",
"c c #E9ECEE",
"v c #EAEDEF",
"b c #EBEEF0",
"n c #ECEFF1",
/* pixels */
"                                        ",
"                                        ",
"                                        ",
"                  oqoo                  ",
"              o   onnnnnoo              ",
"               tpwonnnnnpo              ",
"               opponnnnnp               ",
"               opponnnnpo               ",
"                yponnnpp&               ",
"                opopppp$                ",
"                @poppppo                ",
"                 oooooo                 ",
"              o8nnnnnnpp7o              ",
"            onnnnnnnnnnppppo            ",
"           onnnnnnnnnnnnppppo           ",
"          @nnnnnnnnnnnnnnpppp@          ",
"         onnnnnnnno44onnnvppppo         ",
"        onnnnnnnnno44onnnnpppppo        ",
"        nnnnnnnno444444onndppppp        ",
"       onnnnnnno44444444onnpppppo       ",
"       8nnnnnno444<it1444onppppp6       ",
"       nnnnnnno444onno>>>onpppppp       ",
"      onnnnnnno444,0nnnnnnnppppppo      ",
"      onnnnnnno4444444o-nnngpppppo      ",
"      onnnnnnnb444444444onnjpppppo      ",
"      onnnnnnnno444444444hnjpppppo      ",
"      onnnnnnnnn5o4444444onjpppppo      ",
"      onnnnnnnnnnnnn92444ondpppppo      ",
"      onnnnnnno;;;onno444onapppppo      ",
"      onnnnnnno444=xj:444onppppppo      ",
"      onnnnnnnv444444444Onnppppppo      ",
"      onnnnnnnn*%444444onnnppppppo      ",
"      onnnnnnnnnnbo44onnnnnppppppo      ",
"      vnnnnnnnnnnno44onnnnnppppppu      ",
"     annnnnnnnnnnnnnnnnnnnppppppppw     ",
"    onnnnnnnnnnnnnnnnnnnnnpppppppppo    ",
"    oooooooooooooooooooooooooooooooo    ",
"                                        ",
"                                        ",
"                                        "
};
