/* XPM */
static char *c654f6e40a6d40868d621a1f6f48affbPQKAjwz7lQ449CMH[] = {
/* columns rows colors chars-per-pixel */
"50 50 67 1 ",
"  c #FF5D07",
". c #FF5E08",
"X c #FF6108",
"o c #FF6608",
"O c #FF6808",
"+ c #FF6C08",
"@ c #FF680D",
"# c #FF7308",
"$ c #FF7508",
"% c #FF7A08",
"& c #FF7D08",
"* c #FF8108",
"= c #FF8408",
"- c #FF8808",
"; c #FF8717",
": c #FF8218",
"> c #FF891B",
", c #FF8D1D",
"< c #FFA51B",
"1 c #FFAD1F",
"2 c #FF9722",
"3 c #FF9B21",
"4 c #FFA227",
"5 c #FFC812",
"6 c #FFCA14",
"7 c #FFCC17",
"8 c #FFC918",
"9 c #FFCD19",
"0 c #FFCA1C",
"q c #FFCF1C",
"w c #FFCD29",
"e c #FFD725",
"r c #FFDB2A",
"t c #FFDE2E",
"y c #FFC336",
"u c #FFC637",
"i c #FFC838",
"p c #FFCC3A",
"a c #FFDF30",
"s c #FFD13C",
"d c #FFDB3D",
"f c #FFE133",
"g c #FFE335",
"h c #FFE63A",
"j c #FFE73E",
"k c #FFEB3F",
"l c #FFD940",
"z c #FFD95D",
"x c #FFE442",
"c c #FFE545",
"v c #FFEB40",
"b c #FFE947",
"n c #FFEC47",
"m c #FFF047",
"M c #FFF34B",
"N c #FFF44B",
"B c #FFF34C",
"V c #FFF54D",
"C c #FFDA61",
"Z c #C36CDE",
"A c #FFE591",
"S c #FFE798",
"D c #FFEAA5",
"F c #FFEBAC",
"G c #FFF3CD",
"H c #FFF7DD",
"J c white",
/* pixels */
"ZZZZZZZZZZZZZZZZZZZZZZZZZZZZZZZZZZZZZZZZZZZZZZZZZZ",
"ZZZZZZZZZZZZZZZZZZZZZZZZZZZZZZZZZZZZZZZZZZZZZZZZZZ",
"ZZZZZZZZZZZZZZZZZZZZZZZZZZZZZZZZZZZZZZZZZZZZZZZZZZ",
"ZZZZZZZZZZZZZZZZZZZZZZZZJJZZZZZZZZZZZZZZZZZZZZZZZZ",
"ZZZZZZZZZZZZZZZZZZZZZZZJFDJZZZZZZZZZZZZZZZZZZZZZZZ",
"ZZZZZZZZZZZZZZZZZZZZZZJ5555JZZZZZZZZZZZZZZZZZZZZZZ",
"ZZZZZZZZZZZZZZZZZZZZZZw55550ZZZZZZZZZZZZZZZZZZZZZZ",
"ZZZZZZZZZZZZZZZZZZZZZJ555555JZZZZZZZZZZZZZZZZZZZZZ",
"ZZZZZZZZZZZZZZZZZZZZJ55555555JZZZZZZZZZZZZZZZZZZZZ",
"ZZZZZZZZZZZZZZZZZZZZC55555555sZZZZZZZZZZZZZZZZZZZZ",
"ZZZZZZZZZZZZZZZZZZZJ5555795555JZZZZZZZZZZZZZZZZZZZ",
"ZZZZZZZZZZZZZZZZZZJ5555fVVk5555JZZZZZZZZZZZZZZZZZZ",
"ZZZZZZZZZZZZZZZZZJ55555V..V55555JZZZZZZZZZZZZZZZZZ",
"ZZZZZZZZZZZZZZZZJ55555V....V55555JZZZZZZZZZZZZZZZZ",
"ZZZZZZZZZZZZZJJH55555ql....pe55555GJJZZZZZZZZZZZZZ",
"ZZZZZZZZZZJJJC5555555V......V5555555zJJJZZZZZZZZZZ",
"ZZZZZZJJJSVa55555555V........V5555555555AJJJZZZZZZ",
"ZZZZZJ555VVV555555mV..........VM555555555555JZZZZZ",
"ZZZZZ0555fVV555kVV,............>VVk5555555558ZZZZZ",
"ZZZZZ5555555VVi........XXXXX.......yVV5555555ZZZZZ",
"ZZZZZ755555rV.....XXXXXXXXXXXXXX.....Va555556ZZZZZ",
"ZZZZZX555555V...XXXXoooooooooooXXX...V555555oZZZZZ",
"ZZZZZ u55555hVXXXooooOOOOOOOOOooooXXVv55555s ZZZZZ",
"ZZZZZZ.V55555VcoooOOOO+++++++OOOOoodV55555N.ZZZZZZ",
"ZZZZZZZ.g55555V3OOO+++++++++++++OO;V55555t.ZZZZZZZ",
"ZZZZZZZ .955555VO+++###########+++V555556. ZZZZZZZ",
"ZZZZZZZZ.X55555fV+###$$$$$$$$####Vk55555@.ZZZZZZZZ",
"ZZZZZZZZZ.b55555V##$$$%%%%%%$$$$#V55555M.ZZZZZZZZZ",
"ZZZZZZZZZZ.55555V$$%%%%&&&&%%%%$$V55555.ZZZZZZZZZZ",
"ZZZZZZZZZZ j5555V$%%&&&&&&&&&&%%%V5555h.ZZZZZZZZZZ",
"ZZZZZZZZZZZ.5555V%%&&********&&&%V5555oZZZZZZZZZZZ",
"ZZZZZZZZZZZ.5555V&&***======***&&V5555.ZZZZZZZZZZZ",
"ZZZZZZZZZZZZ5555V&**===----===**&V5555ZZZZZZZZZZZZ",
"ZZZZZZZZZZZZ5555V**==-nVVVVM--=**V5555ZZZZZZZZZZZZ",
"ZZZZZZZZZZZZ5555Vx=<VVf5555tVV1=dV5555ZZZZZZZZZZZZ",
"ZZZZZZZZZZZZ5555NVVV5555555555VVVV5555ZZZZZZZZZZZZ",
"ZZZZZZZZZZZZ55555555555555555555555V55ZZZZZZZZZZZZ",
"ZZZZZZZZZZZZ5555555555555555555555VVV5ZZZZZZZZZZZZ",
"ZZZZZZZZZZZZ5555555555555555555555VVV5ZZZZZZZZZZZZ",
"ZZZZZZZZZZZZ5555555555hVVVVk5555555955ZZZZZZZZZZZZ",
"ZZZZZZZZZZZZ5555555hVB:....:BVh5555555ZZZZZZZZZZZZ",
"ZZZZZZZZZZZZ75555VV4..........2VV55556ZZZZZZZZZZZZ",
"ZZZZZZZZZZZZMVVVV................VVVVVZZZZZZZZZZZZ",
"ZZZZZZZZZZZZ...........    ...........ZZZZZZZZZZZZ",
"ZZZZZZZZZZZZ.........ZZZZZZZZZ........ZZZZZZZZZZZZ",
"ZZZZZZZZZZZZ......ZZZZZZZZZZZZZZ......ZZZZZZZZZZZZ",
"ZZZZZZZZZZZZZ.. ZZZZZZZZZZZZZZZZZZ ..ZZZZZZZZZZZZZ",
"ZZZZZZZZZZZZZZZZZZZZZZZZZZZZZZZZZZZZZZZZZZZZZZZZZZ",
"ZZZZZZZZZZZZZZZZZZZZZZZZZZZZZZZZZZZZZZZZZZZZZZZZZZ",
"ZZZZZZZZZZZZZZZZZZZZZZZZZZZZZZZZZZZZZZZZZZZZZZZZZZ"
};
