/* XPM */
static char *e5b34a114d66479e85cefb630234c3afoo83b0dBg3fKVtqg[] = {
/* columns rows colors chars-per-pixel */
"50 50 56 1 ",
"  c #234253",
". c #234254",
"X c #244354",
"o c #274657",
"O c #365463",
"+ c #365666",
"@ c #3F5F6E",
"# c #426271",
"$ c #506976",
"% c #5E7F8B",
"& c #C36CDE",
"* c #70919C",
"= c #7F9A9E",
"- c #7697A1",
"; c #7A9BA6",
": c #7B9CA6",
"> c #7FA0AA",
", c #809B9F",
"< c #829DA0",
"1 c #839FA4",
"2 c #84A0A5",
"3 c #87A4A9",
"4 c #84A5AF",
"5 c #89A6AB",
"6 c #8CA4A8",
"7 c #8AA7AC",
"8 c #92A9AD",
"9 c #8EABB0",
"0 c #98ADB1",
"q c #93B2B7",
"w c #94B3B8",
"e c #94B4B9",
"r c #98B8BD",
"t c #A7B9BC",
"y c #95B9C0",
"u c #9ABBC1",
"i c #9BBDC2",
"p c #9CBDC3",
"a c #9BBEC5",
"s c #9CBFC6",
"d c #A1C4CB",
"f c #A3C6CC",
"g c #A4C7CD",
"h c #A4C8CF",
"j c #BDCACD",
"k c #A7CBD1",
"l c #AACED4",
"z c #ACD0D6",
"x c #C3D0D2",
"c c #E4EAEB",
"v c #E6EBEC",
"b c #EDF1F1",
"n c #F0F3F3",
"m c #F3F6F6",
"M c #F6F8F8",
"N c white",
/* pixels */
"&&&&&&&&&&&&&&&&&&&&&&&&&&&&&&&&&&&&&&&&&&&&&&&&&&",
"&&&&&&&&&&&&&&&&&&&&&&&&&&&&&&&&&&&&&&&&&&&&&&&&&&",
"&&&&&&&&&&&&&&&&&&&&&&&&&&&&&&&&&&&&&&&&&&&&&&&&&&",
"&&&&&&&&&&&&&&&&&&&&&&&&&&&&&&&&&&&&&&&&&&&&&&&&&&",
"&&&&&&&&&&&&&&&&&&&&&&&&&&&&&&&&&&&&&&&&&&&&&&&&&&",
"&&&&&&&&&&&&NNNNNNN&&&&&&&&&&&&NNNNNNN&&&&&&&&&&&&",
"&&&&&&&&&&NNb<====cNN&&&&&&&&NNb=====vNN&&&&&&&&&&",
"&&&&&&&&&N6=========8N&&&&&&Nt=========<N&&&&&&&&&",
"&&&&&&&&N=============mN&&NN=============M&&&&&&&&",
"&&&&&&&N===============0NNx===============N&&&&&&&",
"&&&&&&&=====zzg=========<8=================&&&&&&&",
"&&&&&&n====wzzz============================j&&&&&&",
"&&&&&&======zzu=============================&&&&&&",
"&&&&&&======================================.&&&&&",
"&&&&& ======================================X&&&&&",
"&&&&&X======================================$&&&&&",
"&&&&&X======================================O&&&&&",
"&&&&&X======================================X&&&&&",
"&&&&&X======================================X&&&&&",
"&&&&&X======================================X&&&&&",
"&&&&& >====================================sX&&&&&",
"&&&&&&X====================================X&&&&&&",
"&&&&&&Xy==================================hX&&&&&&",
"&&&&&&.X5=================================XX&&&&&&",
"&&&&&&&Xo================================@X&&&&&&&",
"&&&&&&&&X%=======================2======sXX&&&&&&&",
"&&&&&&&&XX:====================2zzl====fXX&&&&&&&&",
"&&&&&&&&&XX4===================izzz===kXX&&&&&&&&&",
"&&&&&&&&&&XX:,==================zz===fXX&&&&&&&&&&",
"&&&&&&&&&&&XX>======================hXX&&&&&&&&&&&",
"&&&&&&&&&&&&XX-1===================fXX&&&&&&&&&&&&",
"&&&&&&&&&&&&&XX><=================hXX&&&&&&&&&&&&&",
"&&&&&&&&&&&&&&XX-7==============<fXX.&&&&&&&&&&&&&",
"&&&&&&&&&&&&&&&XX>5============,hXXX&&&&&&&&&&&&&&",
"&&&&&&&&&&&&&&&.XX*q==========2dXX &&&&&&&&&&&&&&&",
"&&&&&&&&&&&&&&&&.XX;r========3fXX &&&&&&&&&&&&&&&&",
"&&&&&&&&&&&&&&&&& XX*p======9dXX &&&&&&&&&&&&&&&&&",
"&&&&&&&&&&&&&&&&&& XX;f====eaXXX&&&&&&&&&&&&&&&&&&",
"&&&&&&&&&&&&&&&&&&&XXX*g==uyXXX&&&&&&&&&&&&&&&&&&&",
"&&&&&&&&&&&&&&&&&&&&XXX-zzyXXX&&&&&&&&&&&&&&&&&&&&",
"&&&&&&&&&&&&&&&&&&&&&XXX+#XXX&&&&&&&&&&&&&&&&&&&&&",
"&&&&&&&&&&&&&&&&&&&&&&XXXXXX&&&&&&&&&&&&&&&&&&&&&&",
"&&&&&&&&&&&&&&&&&&&&&&&XXXX&&&&&&&&&&&&&&&&&&&&&&&",
"&&&&&&&&&&&&&&&&&&&&&&&&XX&&&&&&&&&&&&&&&&&&&&&&&&",
"&&&&&&&&&&&&&&&&&&&&&&&&&&&&&&&&&&&&&&&&&&&&&&&&&&",
"&&&&&&&&&&&&&&&&&&&&&&&&&&&&&&&&&&&&&&&&&&&&&&&&&&",
"&&&&&&&&&&&&&&&&&&&&&&&&&&&&&&&&&&&&&&&&&&&&&&&&&&",
"&&&&&&&&&&&&&&&&&&&&&&&&&&&&&&&&&&&&&&&&&&&&&&&&&&",
"&&&&&&&&&&&&&&&&&&&&&&&&&&&&&&&&&&&&&&&&&&&&&&&&&&",
"&&&&&&&&&&&&&&&&&&&&&&&&&&&&&&&&&&&&&&&&&&&&&&&&&&"
};
