/* XPM */
static char *_46ac36c60074881c29718a80bbc14a73ekhg0R3BL6SrvrG[] = {
/* columns rows colors chars-per-pixel */
"76 50 92 1 ",
"  c #0E0301",
". c #140605",
"X c #1A0707",
"o c #160807",
"O c #1B0807",
"+ c #1A0708",
"@ c #170808",
"# c #1B0909",
"$ c #1E0C0B",
"% c #1F0C0C",
"& c #1E0E0D",
"* c #210607",
"= c #200807",
"- c #200909",
"; c #200A09",
": c #250A09",
"> c #270B0A",
", c #220C0A",
"< c #240C0A",
"1 c #210D0C",
"2 c #260D0C",
"3 c #270E0D",
"4 c #290D0B",
"5 c #2A0D0B",
"6 c #2D0F0B",
"7 c #2B0E0C",
"8 c #2B0E0D",
"9 c #2D0F0D",
"0 c #330E0D",
"q c #3D0E0D",
"w c #26100D",
"e c #27100E",
"r c #29100C",
"t c #2A100D",
"y c #2C110D",
"u c #2E130E",
"i c #31110D",
"p c #30110E",
"a c #33130E",
"s c #3B140E",
"d c #36180E",
"f c #38180F",
"g c #251310",
"h c #2D1310",
"j c #2B1511",
"k c #2F1410",
"l c #311411",
"z c #331510",
"x c #361510",
"c c #371510",
"v c #3A1511",
"b c #361812",
"n c #311A14",
"m c #3B1A13",
"M c #3C1A12",
"N c #391914",
"B c #3F2114",
"V c #400F0F",
"C c #44130F",
"Z c #49130F",
"A c #40180F",
"S c #4A180F",
"D c #50130E",
"F c #431511",
"G c #4B1413",
"H c #431B13",
"J c #441D14",
"K c #4B1B13",
"L c #531512",
"P c #5B1611",
"I c #541C14",
"U c #5C1B14",
"Y c #591918",
"T c #61170F",
"R c #67180E",
"E c #681B0E",
"W c #731E0F",
"Q c #601711",
"! c #631C13",
"~ c #6B1B13",
"^ c #4F200F",
"/ c #462415",
"( c #4B2214",
") c #4D2814",
"_ c #4A2318",
"` c #522214",
"' c #582015",
"] c #582418",
"[ c #642615",
"{ c #6C2313",
"} c #752512",
"| c #7C2813",
/* pixels */
"...   ..   ......###O##o##&ggnjje11###$$###o........o.o... ...  ...         ",
".....X++.............#####&eeyNNztt,,,,,$$$$11####$$&######oo............   ",
".....X++.............#####&eeyNNztt,,,,,$$$$11####$$&######oo............   ",
"..XXX+$;O++XXX###X..XXX+$#$;;<cca44<;;$$$$$$11$$$$$$1$$$&&$###........@...  ",
"XX+XXX==$$$$$$$;;$$$XXXOOOOOOO<,;;;;##XX#XX...#$#O..X$$$$$$XX###......@@@.  ",
"XX+XXX==$$$$$$$;;$$$XXXOOOOOOO<<;;;;##XX#XX...#$#O..X$$$$$$.X###......#@@.  ",
"::;$$;;;$**:33,::3,,XXX;;;$##+##O=OO....###XXX+.....X++$$$$$$X...######@@.  ",
"::;$$;;;$**:33,::3,,XXX;;;$#####O=OO....###XXX+.....X++$$$$$$X...######@@.  ",
"994<<:;;$XX$;;,<<8::;88<<<311oOO;,,,........XX....  ...X++$..X............  ",
"yyyyy<33;;;;<<t<<844:<<y88<31,<<<33t##OO...X$$XXO......###X..#...##.......  ",
"yyyyy<33;;;;<<t<<844:<<y88<31,<<,33e##OO...X$$#OO......###X..#...##.......  ",
"98ayy8888<<<44y<<<<<:<<z884tetaaazzy,,;;$OO$$$$#####...#++X..#..O##.......  ",
"448yyytty<<499433<;;;88z88ykkaccJNNyyy<<;;$$XX$$$##+O...XXO##.##......ooo...",
"449yyyyty<<499433<;;;88z88ykkaccJNNyyy<<;$$$XX$$$###O...XXO##.##......ooo...",
"yy888yyyy44yzz9jj8<<399ktt4aaHddMMMdddaa:$$$XX#O$X..&XXX........###.........",
"FFy38accyccvvvazz3<<yzzthht44dddJ///((NNy;;$+++O$$$$OXXXXXO..X..............",
"FFy33yccyccvvvazz3<<yzzthht88dddJ///((NNy;;$##+$O$$$OXXXXXo..X..............",
"JJz888hhzvvvvvvNNayyyzz8yyhyyyaaM//)__JJa<<+##+$$$$$XXX.XX#X.X..............",
"HHc99<33acvcddcNNJcc8hh8yyhyy9yyyNNJ//JJd<:X++$$##XX.##.###XXX...##.........",
"HHc99<33acvcddcNNJcc8hh8yyhyy9yyyNNJ//JJd<:X++$$##XX.##.###XXX...##.........",
"zzzaaayyyssvccy88Jss<jjteee<<:443eeaMMMMa,,$;;#$#$XX.$$####..X..#$$###......",
"yy9yyzccdMMHvvyyyNaa333433ttt8aayzzcNNmmz,,X$$O##XXX#..###....###...oo......",
"yy9yyzccdMMHvvyyyNaa333433t8t8aayzzcNNmmz,,X$$O###XX#..###....###...oo......",
"aa9yyzssNMMJJJMccdyy3333tt3338aazaayyyddz<<X#####XOO$#########ooo@@ooo......",
"99488yaabMMJ___ddayy999333,$$;88yyyyttaaztt,##$,,;$$&$$133eee$..ooo.......  ",
"99489aaabMMJ___ddayy999333,$$=88yyyyttaaztt,##$,,;$$&$$133eee#..ooo.......  ",
"884449cczaaM//Kyyaccchh3$$$OOO::8yhyttaazzzt##1<<<,,&113ttyyy;OO..........  ",
"aaa884vvt<<avvayycvvvhh;$;OXX,;;3eeettbbayy<$$#,,333$,,$31t44e$$X.........  ",
"aaa998vvt<<avvayycvvchh;$$OXX,;;3ee3ttccayy<$$#,,333$,,$33t44e$$X.........  ",
"HHFFFFvvyyyy88yvvsaadMMc44:33t;;$$$,ttdddaat$$$,1,$$$,,<aamJJbee,$$......   ",
"KKFHJ_JJcyyt888vvFssaMMvyy4883$$;,,,33vvsaay<<$,,,$$;33tyycNNk<<,$$....  ...",
"KKFHJ_JJcyyy888vvFssaMMvyy4883$$;,,,33vcsaay<<$,,,$$;33tyycNNk<<,$$....  ...",
"KKFKK`((NaaaaayscvsssFMcyy84<4;;3338aaccNddytt$,,33<tbbzyyazzyee,,,O........",
"KKKKKKKKsddvvvaaascvvHHaaat4<8<<tttymmaabbbzyy,<<eyya//Bmmbzzvaatee,........",
"KKKKKKKKsddvvvzaasvvvHmaayt4<8<<tttymmaabbbzyy,<<3yya//Bmmbzzvaatee,o.......",
"JJFFFMvvaaavNNbyysmmcyy3ttyaaeee<$$$ttMMNffsyyjyycbba///((Jdddcct,,t......  ",
"CCsvvJFFaaavMMa88yaazyy8ddJJJdyy,<<4hhccyzzNNNcaaccczNNzyyyttazzt,,X.... ...",
"CCsvvFFFaaavMMa88yaazyy8ddJJJcyy,<<4hhccyazNNNcaaccczNNzyyyttazzt,,X.... ...",
"vvcMMJFFsssvNNcvvaccvyaaNN//JMFFNccaaayyzbbNddMMMzkkbzz311ejjytt<$$.     ...",
"ccvHHKKKHFFMMMMMMcvvMaavHHmNMm`((JJvaayybbbzaaMFFvaazyy3;;1ee,;;OOO.   . .oo",
"ccvHHKKKHFFMMMMMMcvvMaavHHJNNM(`(JJNadyynbbzaaMFFsaazyy3;;1ee,;;$OO.   ....X",
"MMFKK`[[`KKKKKAss8aavaasJJHccF``^JJNyyddczzyzzNFFFssyaa3$$+..O##X.........++",
"KGIII````IIKJJFa00000880vvaaavssKHHa88000zzzzzvFFvaaaas=XXOXXOOO;<:;........",
"KKIII````IIKJJF000000880vvaaavssIHHa88000czzzzvFFvaaaaa=XXOXXOOO;<:;........",
"ssGII']]IKKKHHFFFvssassCIIKFFHHHKKKCKKKKCssvHHKFFvFFJvv:XX$$$$OO;<<3cc8$$X..",
"ssGII']]IKKKHKFFFvsssssCIIKFFHHHKKKCKKKKCssvHHKFFvFFJvv:XX$$$$OO;<:3cc8$$X..",
"qqGLLIUULZZZGGFFFFFFFGGIUUUUUIUUULLI[[[[IKKKIISCCCssGvv4:::;;;::8998vva::X##",
"VqGGGLUUPDDDLLGGGGFFGGGYYYYUUT{{{!!!{{{{{!!UYYDLLZqsGVV6444:::990vvq00044X$$",
"qVGLGLUPPDDDLLGGGGFFGGGYYYYUUT{{{!!!{{{{{!!UYYDLLZqqGVV9444:::660vvq00044*++",
"GGGLLPPPRQQPUQYYYLZZVGGLLLLLLE}}|}}~~~!!WWW!PP~!!LLL!CC000400000FGGFvv0004$$"
};
