/* XPM */
static char *_d7e8bad985c4f16d2b9b1eafaed6f28XvObgaaIU3oj85U7[] = {
/* columns rows colors chars-per-pixel */
"50 50 252 2 ",
"   c #0B0C0C",
".  c #0D100D",
"X  c #0C0D16",
"o  c #0C1617",
"O  c #121414",
"+  c #15171A",
"@  c #151B1B",
"#  c #1B1B1B",
"$  c #211B19",
"%  c #0B2918",
"&  c #19241E",
"*  c #18371E",
"=  c #22281F",
"-  c #0C192A",
";  c #181A26",
":  c #1A1C35",
">  c #0C2A2A",
",  c #162724",
"<  c #1C2423",
"1  c #1C242A",
"2  c #1C2C2B",
"3  c #1D2733",
"4  c #153430",
"5  c #183635",
"6  c #1C3B3B",
"7  c #222324",
"8  c #282927",
"9  c #24252B",
"0  c #242B2C",
"q  c #2B2C2C",
"w  c #26362A",
"e  c #2D322D",
"r  c #32332D",
"t  c #252936",
"y  c #2C2E32",
"u  c #253433",
"i  c #2D3433",
"p  c #2B3B34",
"a  c #2D343B",
"s  c #243839",
"d  c #2D3C3B",
"f  c #333334",
"g  c #373638",
"h  c #343B3A",
"j  c #3C3C3C",
"k  c #413E3E",
"l  c #1B461D",
"z  c #1C4733",
"x  c #2B4639",
"c  c #38423D",
"v  c #42413F",
"b  c #181950",
"n  c #152F46",
"m  c #193B45",
"M  c #293846",
"N  c #2C334E",
"B  c #353846",
"V  c #3B3C42",
"C  c #37346B",
"Z  c #403E48",
"A  c #1A4949",
"S  c #184952",
"D  c #2C4443",
"F  c #274748",
"G  c #344443",
"H  c #3B4445",
"J  c #38464A",
"K  c #344C4D",
"L  c #3D4A4B",
"P  c #39544A",
"I  c #2A4B56",
"U  c #394956",
"Y  c #295858",
"T  c #375657",
"R  c #3D5253",
"E  c #36615E",
"W  c #1D556C",
"Q  c #2F4A6E",
"!  c #394866",
"~  c #395A66",
"^  c #31676B",
"/  c #396769",
"(  c #434343",
")  c #464648",
"_  c #434A4B",
"`  c #4B4D4C",
"'  c #534E4D",
"]  c #46514D",
"[  c #55514E",
"{  c #434C53",
"}  c #474A57",
"|  c #514E56",
" . c #435453",
".. c #4C5253",
"X. c #48585A",
"o. c #535455",
"O. c #565758",
"+. c #535B5B",
"@. c #5C5B5B",
"#. c #625E5D",
"$. c #4E694F",
"%. c #48645B",
"&. c #58615E",
"*. c #4C4C6A",
"=. c #495A67",
"-. c #545967",
";. c #5D5D62",
":. c #4B5775",
">. c #565974",
",. c #4D6263",
"<. c #47686A",
"1. c #546162",
"2. c #5B6363",
"3. c #56676A",
"4. c #5B6B6C",
"5. c #54726A",
"6. c #486B77",
"7. c #576874",
"8. c #497574",
"9. c #587677",
"0. c #616161",
"q. c #636463",
"w. c #656769",
"e. c #6B6B6B",
"r. c #6C756C",
"t. c #78766C",
"y. c #676A77",
"u. c #716D73",
"i. c #637473",
"p. c #6D7475",
"a. c #68757B",
"s. c #6C7A7B",
"d. c #737473",
"f. c #787678",
"g. c #737B7C",
"h. c #7B7C7C",
"j. c #827E7C",
"k. c #79827E",
"l. c #88887E",
"z. c #367E80",
"x. c #5C5C94",
"c. c #4E6D8F",
"v. c #596685",
"b. c #577683",
"n. c #5A7996",
"m. c #676A84",
"M. c #687A85",
"N. c #767A86",
"B. c #6E6C93",
"V. c #687A94",
"C. c #757A93",
"Z. c #7477A5",
"A. c #817E92",
"S. c #4F8484",
"D. c #5A8487",
"F. c #698688",
"G. c #768587",
"H. c #7C8383",
"J. c #6D8C93",
"K. c #778898",
"L. c #6B9696",
"P. c #79979A",
"I. c #5988AF",
"U. c #6B86A5",
"Y. c #7785A6",
"T. c #6794A4",
"R. c #7A94AD",
"E. c #73A3B1",
"W. c #6597D1",
"Q. c #6FA2C4",
"!. c #868788",
"~. c #918D8F",
"^. c #89918E",
"/. c #868896",
"(. c #899798",
"). c #989898",
"_. c #A19A9A",
"`. c #92A09F",
"'. c #A6A699",
"]. c #8989A5",
"[. c #8896A5",
"{. c #989EA4",
"}. c #908EB0",
"|. c #859BB8",
" X c #9497B9",
".X c #A39DA5",
"XX c #8BAEAE",
"oX c #97A8A8",
"OX c #89A5B8",
"+X c #98A9B8",
"@X c #9BB7B9",
"#X c #A7A9A9",
"$X c #AAAFAE",
"%X c #A7ABB6",
"&X c #A7B5B5",
"*X c #B6B7B8",
"=X c #C4BFBA",
"-X c #B3C1BE",
";X c #C2C6BC",
":X c #8795C5",
">X c #989ACA",
",X c #939DD3",
"<X c #8BABCC",
"1X c #98A8C8",
"2X c #99B6C7",
"3X c #98A7D7",
"4X c #9BBAD5",
"5X c #A3B7C5",
"6X c #B8B9C8",
"7X c #AAA9D0",
"8X c #A9B6D6",
"9X c #B5B9D6",
"0X c #909CF2",
"qX c #95AEEA",
"wX c #9AB6E4",
"eX c #B0B5E7",
"rX c #94CDCF",
"tX c #99C7DB",
"yX c #AAC5C8",
"uX c #B7C8C9",
"iX c #AFCCD3",
"pX c #BAD7D5",
"aX c #BEE2DC",
"sX c #95C3EE",
"dX c #AFCEEC",
"fX c #B9EBF1",
"gX c #C7C7C8",
"hX c #C5CAD6",
"jX c #C6D6D8",
"kX c #D4D6D6",
"lX c #DBDCDC",
"zX c #E3DFDB",
"xX c #D2E0DF",
"cX c #CBDBE6",
"vX c #D2DAE5",
"bX c #CBCFF2",
"nX c #E2DEEC",
"mX c #C6E6E8",
"MX c #D8E7EA",
"NX c #D0EDF1",
"BX c #DAE8F9",
"VX c #CAF6F7",
"CX c #D8F8FA",
"ZX c #E3E4E3",
"AX c #E6E9E8",
"SX c #ECEDEC",
"DX c #E7E9F4",
"FX c #F1EDF2",
"GX c #EAF7F8",
"HX c #F3F4F4",
"JX c #F6FAFA",
"KX c #FDFDFE",
/* pixels */
"3.7 !.E.8Xf q m.o.Q ~ O.+.g P.oXdX9X$X(.a jXG.^ h BX@.uX=.B a D./ 9.2.L P.OX( D 0.@Xw.Y i.f.f.#X@.G.",
"0 . g.y.~.2.*XV $.g s d.JX).=.w 9.mX{ G.U.vX>.,.B 9.~ ;.M 1 D t M g.s /.K.{.7.=. .D M.a.f.b.G.s Y.r ",
"; 1 7 ZXAXh.h.U ZX`.'.).3.p q.8 - T dXH O.:.:.(  XT e.X.N eXj 0 !.) *.9.$.H n.i.C.gX^ >XF.B.J.g._ + ",
"P L eXKX|.j h @.[.q.lXe.gXv.b.u.oXP.oXh.U 2.oXw.yXO.V Y e.l i M.G.d.i =.@.M o.M ' g.s.p.oXm.(.[ % + ",
"E ..ZXd.#.V X y..X@.4 g N.^.6Xv.L.dX~ O f k.G.%XiXfXuXY 1.h.G.S.f.oXH.@.0.,.i _ 3XwX} K O.SXk D * n ",
"7 q Z H.oXd G s.*XI | } < 6 -.' ` 6 ` 4.,.9.yX6X*XJ j SXg.N.).K.;.(.$XR 8.X.1XN.&X7.=.oX(.h.7.@.).K ",
"g   4.<.JX).t.e.&.-XD.C c [ FX). .H a j e.4.~.KXd (.& U uXkX,.[ T.N.b...( +XHXi %Xg.Y ( &.; @.A.p./ ",
"    ; 8 k =X' O -.i 7.GX*X).{.). .<X6 q x =.dXdX:.k.D Y ;.VXGXY i.!.%Xg 3.H KX4XE <X9.w.B O 2 6.9.5 ",
"X.O V p # q # 4 1 $ q r lXhXf HXKXq.q h ' { $X].o.G.@.P.).#.q.b.q.2.s = : 9 | *.M @.H +.3.9 } O O.q.",
"q.=.>.t.2.*X#X..8 1 kXi Z ' u KXKXJXF  .5 NXGXM.$X+X.XF.eX4.gX9.j.h.H t # @.6 J 6.!.@ g _ *.K *., c.",
"V.Y.Z.q q ZXgXuXcXgX~.#X5X) g.( =XgX#Xc.%XK ~ H.w.yX+.>.O.HX3.e.] H 2 { B 2./.a.u G H SX! j 1 K p., ",
"5 P.^.U % n.h.J gXJ.@X_.! 8Xy.l.).&Xu.'.(.+.9.R - AXE.dXFXJX&X<.a.# # ..< i.M (.@X#.5.) a 9.F / ^.z ",
"4X XJXT.;.yX4XOXP.a.q.< a q D h q )./.!.!.~.~.2XeXdX6XKX.Xg ;.<.D %.M K 0 a ^ G.I 2.L.o.U.V.7.T.m.DX",
"KXQ.JXb.C.E.>X..^.f   X , ' , pXwXv.'.d q 6 D #.8 w @Xd.w * k o.3 z.{ 3 j  .q.e.M AXrX2 4 u B.%.MX4X",
"{.+X>Xb.x.[.kX!.4 q O j o o ^.wX8X,X6.X.3.=.o o e 3 9 9 p t 3 d Y B M i jX@X#XH K.R c D y P.F.v.!.OX",
"@XiX]./.C.W.HXHX< ^ #X. X nXsX-XsX3XW.E.8.7 X O A t F.r 4 ; z M -.a Z.3.N G h FXlXo.L A X.' -.8 K.-.",
"%.KX@X2XN.3.f O.*X& e.t.n.7X4XtXiXqXwXp.X ; + / 1 A T < m # c p.X.U.S F R y.h R M KXh P.).d U K /.c ",
"p.2.F.w.M k.f 0 u X.3XqX3XJ.tX,XwXtX3XD m K y.U H R -.M u ; U y.: -.5 I N 7.B j q.L jXbX| 8.) C x 4 ",
"O.) ) @.ZX7.h.oXj @ 3XrX<XW.V.2XtXqX~ kXu.5 6 / G F M.C R.; ! c.=.0 | |.L 6X<...w.3.!.) Q ) #.9 B F ",
"~ w.sXs.7.-.G., Y.{ |.R.v.(.Y 2 9.|.H #Xd._ e.M.K `.g.V.H.`.$XC.g ` =.CX].g.xXp O.&.NXi.,.,.N =.N.3.",
"/ I.dXW.T.] x E Z.ZX!.# F.M.>.L y.o.` &XAXl.;X& T 9 k KXH.7 KXKXgX .lX3.,.u @.xXSX*Xe.Y I H ..1 <.e.",
"K y.U.n.m.N.P.+.j N.}.~ >.=.2.uX7 ,.  > 2 h.O.& 1 R kXe.y.j.u.6X6XY.~.!.k.5X.Xa.=.i 0 0 L 4 %.OXB oX",
"<.X | JXHXY.i.$ *XT.( 9.5.d.+ U.%.O   # F.7 q  .7 hX^.FXB.L.K.~.l.l.L.& v i % a ; u n c 2 u.! K >._ ",
"R i X.K p.(.:.!.O.R.D.m.j.g # m +.  8 } i.q AX#Xf.P.P.q.V [ F T.K.-.) 7.+ o o.g q : d , d., n.P.K / ",
"H M ,.1.~.~.F.X.HX].~ F N !.m gXO./ C.K.x 2 8.^ Y.C.H.7 # j J tX<XP.T.m.e o -.L ,.K f # W q.v.5 6.<.",
"7.G.P pXkXP.B q #Xy F.@.u [ a q.j 2.p R.MXR.rXeX9Xh.g   u X 5XdXqXtX6Xq # e.  c *X; ` ).q.2 uXk.5Xy.",
"D.1.a.n.1 y H ; O.i H ( ;.gX].4.6.y.dX:XKXn.q.R.KXe U 0.) B uX4XsX3XV.B M.vX<.4.mXvX7Xt ) w.$X# . 3.",
"6 i ; 1 j & 7 t #X=.!.d.~ #.^ MX!.n.y.hXSXOXB.|.KX+X#   V.0X:X,XdXtX;.v.8 BXMXVX9X|.mXMX7X1X# ` 0 # ",
"KXZX7 f ; 1 2.; I R F =.a.N.s.N.~ N.T yXdXb./.s.p 2 u 1X3XrX1Xo.[.1X..F.E.M CXZ.uX@X@XGXmXiX5XB h !.",
"KX9 - X.o a 7 S B : m | 3.:.b./ (., $ h D *.A.7Xq.kXs e vXfXfX8.Y.U.S.9.KX.   *XaXkXvXGXBXVXmX# +.i.",
"'.7 X @ ;.a h p.T F.L $X$X$X$X*X_ q T 9 r G J ^.).X.c DXMXCXyXSX, , :Xq G.{.I 9 i u h.7 p.jXT 9 H kX",
"< f + < q # 2.B a u._ F oXJXN.T ).@.d 0 ).9 !.! 6XB T #X$Xs >XF L 2.8Xc %., > 1 +.(.iXn.<.:./ U ..HX",
"O.@ h h [.) d 3 7.a SXSX(.G.w.1.h.B Z F.H DX&XlXj G p.q.T O.%.g.M.2._ ! m O 5.o f.B G.i +XJ.g gX/.s.",
"@Xv.j { q.oXd _ M V F #X{.K ' ` F G U.s.2.2.^.SX| H.!.N.L./ 1.x ^.} A -.A.K.2X5 @ DXvX_ > ` | DXNXMX",
"NXaXXX,.].' lXkXg.e.` d.1X@ j A J.<.s.KX;.ZXh.G.p.gXs.P f $.p : 0 & @ q *Xw.p ; d B.XX. j f C.zXlXSX",
"mXcX8XNXhXB g ^.ZX).*Xn X.6.M I Q 2X X XOXw...1.1 2 2 ; ; ; ; 1 0 , ` K HXo.+.c.b.+X_ O g.Y BXMXGXVX",
"VX1X:XyXKXBXeX,.b ( JXbX8 D BX7XK @ o.a.w 0 V t 0 ` h y g V p y f ) T %X#.<.A f d.;.i gX! V.+ CXJXZX",
"1XAXSX2XGXcXbXdX5XF.O O.6.q _ T ..,.1 & j i V t 2 R f ` ` J.iXJXNXBXKXOXK.F.oXU t.+X Xi.{.>.:.Y pXNX",
"E.5XFX#XGXHXvXbXbXrXB q G.f e.KXKX7 f @., 0 K 1 ; 2 e.e.w.*Xm.w.V KXKXN..X!.KXwX_.d.e I.v mXKXy.q :X",
"j.C.~ GXKXGXfXvXDXhXO . 9 o.G.KX$X7 # ; ` H N D 9 o...g.[.8.{.u.gXJX$X*Xp.P.$Xs.-X9 ( Y.@./.!.XXa.o ",
"f &.k s.lXd. XbXfXbX&X> 1 ` #XSX8 @ O.+ @ O.* 9 V 9 n _ r.w l q./.lX9.N.O.bX2XVX% f t >XX.# u #X0 Y ",
"> i % c $X>.y d U w.e.y O ) KXy < X O 0 K L / M  .;.9.G.H 1. .) $X~.g 9.w =.%X2.6 ..7 qX, ) ` 9 4 , ",
"f j jXtXP.a.SXZ.i.U R 9.e.KXf.& 9 1 i e H ; 4 t H 9 N 1.^.( h 2.KX$XI L & y.pXd.e.h.+.G Q n.e o 0 k.",
"2 @.( ..<.i CX).4X7 yXq.AXlX0 q - 2 ; @ @ # : 3.0 1 s kXf 3 i.L KXJXc.KX} lXNXd./.(.:.m I m -.# 3.o ",
". h MXoXL K.jX~ @.d.#X#XJX8 q 4.o i w + + 7 5Xf : H m.q.gX3Xm _ e.&...M { J >...B.P.F lXKXKXKX%X@ H ",
"$XI x.7Xe.w._ eXgXHX@XtXJX7 d.lXy h.< a @ w HX~.V S 5.M c [.d.O.M.#Xz y ; 8.O.Y R N.9 -.v.j lXHXe H.",
"B.f.S.vXA.o.<.M.).i.XXdXj cXlX*Xe.s.-.7.- >.cXB 1.y : B K Y }.R  .B L { X.4.1.w.X.B.( pXp.>.MXG x n ",
"> f B ].D.G.!.y.HX7.mXKXy u.jX!.7 K uXo.3 +.C M R < & lX: 3 K.XXn R | [.R N : G.O.F.N.w.!.B.KXh.: d ",
"7 0 !.U.M O.4.oXJXuX9XKXMXkX-.H.G { H I S t Y U p R 2 e u * b.}.X.*X+X_ y._ 2 G p.o.9XN.G.gXHXg s ` ",
"[.< B.NX1 9Xb.:.y.{ G.e.4.e.uXqXnXK A s.a =.N ,., *XT p 4.: | F.8X2XFXK.2.M /.J y.J  .F ( ).P.j.} .."
};
