/* XPM */
static char *_2e2fea3553e4cc3b6ae7306a3b38db1Wmvjmq4ygOm85Xh2[] = {
/* columns rows colors chars-per-pixel */
"40 65 224 2 ",
"   c None",
".  c #020101",
"X  c #090709",
"o  c #180A0B",
"O  c #171418",
"+  c #100F15",
"@  c #241619",
"#  c #331716",
"$  c #2C100D",
"%  c #3A2519",
"&  c #1D1925",
"*  c #241B2B",
"=  c #281C31",
"-  c #321E36",
";  c #24232B",
":  c #27242A",
">  c #3A282F",
",  c #2A2535",
"<  c #342B3C",
"1  c #39283A",
"2  c #35343A",
"3  c #551A18",
"4  c #492C1E",
"5  c #592A1B",
"6  c #4D301F",
"7  c #602A18",
"8  c #491E28",
"9  c #462B27",
"0  c #5E2725",
"q  c #593929",
"w  c #4B3632",
"e  c #633B28",
"r  c #632A33",
"t  c #703432",
"y  c #6D4B35",
"u  c #674534",
"i  c #764C37",
"p  c #7D543D",
"a  c #6E593F",
"s  c #3A2947",
"d  c #3B3642",
"f  c #3F3055",
"g  c #442C4A",
"h  c #493A48",
"j  c #4D3956",
"k  c #553A5B",
"l  c #563C45",
"z  c #4C3A64",
"x  c #47444A",
"c  c #534D50",
"v  c #5A5758",
"b  c #4F4D53",
"n  c #795844",
"m  c #6B544D",
"M  c #786B4B",
"N  c #55456B",
"B  c #594672",
"V  c #5E5968",
"C  c #635E61",
"Z  c #6D4C74",
"A  c #6E6B6C",
"S  c #666365",
"D  c #716F6E",
"F  c #7C7A75",
"G  c #7D7A7B",
"H  c #777475",
"J  c #706D71",
"K  c #8A2E34",
"L  c #C9373F",
"P  c #87583E",
"I  c #896E39",
"U  c #933B43",
"Y  c #873B42",
"T  c #B93C43",
"R  c #845B45",
"E  c #8E4850",
"W  c #BD414A",
"Q  c #B04C56",
"!  c #8C654A",
"~  c #9B6B4C",
"^  c #966348",
"/  c #9A6C54",
"(  c #9F655A",
")  c #9D7452",
"_  c #AC7C5C",
"`  c #A77756",
"'  c #B47C59",
"]  c #B06E51",
"[  c #B05C61",
"{  c #817D7B",
"}  c #906B72",
"|  c #A27363",
" . c #B57961",
".. c #CD4148",
"X. c #D6454E",
"o. c #E2525A",
"O. c #CD5C64",
"+. c #ED5963",
"@. c #DE7379",
"#. c #E86A72",
"$. c #7D807E",
"%. c #A4823B",
"&. c #9A854E",
"*. c #A48549",
"=. c #B8835C",
"-. c #B39451",
";. c #B4964B",
":. c #84817D",
">. c #94877E",
",. c #B48262",
"<. c #BB8765",
"1. c #AC826F",
"2. c #BEA664",
"3. c #C5895E",
"4. c #C39F4F",
"5. c #D6B35A",
"6. c #C48D64",
"7. c #C38E6B",
"8. c #C98A68",
"9. c #CB936C",
"0. c #C79367",
"q. c #D6986B",
"w. c #CD9A77",
"e. c #D29A74",
"r. c #D89D77",
"t. c #D6B767",
"y. c #DCA478",
"u. c #D9B97B",
"i. c #CEAD6C",
"p. c #E3A97D",
"a. c #E6A578",
"s. c #ECB17E",
"d. c #E2C57B",
"f. c #EBD27B",
"g. c #EBCA6D",
"h. c #815A86",
"j. c #807D82",
"k. c #CF7C84",
"l. c #8A8786",
"z. c #92928D",
"x. c #958C96",
"c. c #9D9A95",
"v. c #9C9C9A",
"b. c #989596",
"n. c #908F8F",
"m. c #A29E9C",
"M. c #AB8B8A",
"N. c #9EA09C",
"B. c #A4A29C",
"V. c #9F99A2",
"C. c #A49EA2",
"Z. c #A4A3A1",
"A. c #ABACA5",
"S. c #ADACA9",
"D. c #A9A7A5",
"F. c #B1ACAA",
"G. c #AEB1A9",
"H. c #B3B3AD",
"J. c #B8BAAF",
"K. c #B4B4B1",
"L. c #BCBCB5",
"P. c #BDBCB9",
"I. c #BAB6BB",
"U. c #B2AFB3",
"Y. c #D5978C",
"T. c #DAA787",
"R. c #D2B58B",
"E. c #E5AA85",
"W. c #EBB588",
"Q. c #F4BE8C",
"!. c #F6B987",
"~. c #EEBD94",
"^. c #EBB496",
"/. c #F2BE95",
"(. c #E8AF96",
"). c #C0BDBF",
"_. c #F1B0AA",
"`. c #BEC0BA",
"'. c #DEC99C",
"]. c #E5C788",
"[. c #F3C38C",
"{. c #F2DB8C",
"}. c #EEC295",
"|. c #F3C395",
" X c #F2C99C",
".X c #F3D791",
"XX c #EBD086",
"oX c #F6E28D",
"OX c #F6E698",
"+X c #C3C3BC",
"@X c #C7C9BE",
"#X c #F5D5AA",
"$X c #F3CEA7",
"%X c #FAE9A7",
"&X c #FEF4AE",
"*X c #FAE8B8",
"=X c #FEF9BB",
"-X c #C1BFC2",
";X c #C7C6C1",
":X c #CBCCC4",
">X c #CDCDCA",
",X c #CAC7C5",
"<X c #D1CECE",
"1X c #CFD1C9",
"2X c #D2D3CC",
"3X c #D8DACF",
"4X c #D5D6D2",
"5X c #DADBD3",
"6X c #DCDDD9",
"7X c #D8D5D8",
"8X c #E0DFD6",
"9X c #DFE0D8",
"0X c #FEE8C6",
"qX c #E3E4DC",
"wX c #E5E5DA",
"eX c #E0DFE2",
"rX c #EBECE3",
"tX c #E9E9E5",
"yX c #EEF0E7",
"uX c #F2F3EC",
"iX c #F7F9ED",
"pX c #FAFCF3",
"aX c #FBFAF8",
"sX c #FEEAEE",
/* pixels */
"                                                                                ",
"                                          ;                                     ",
"                                        h * ; b                                 ",
"                                        < V ; & + +                             ",
"                                        d x x d , 2 +                           ",
"                                        < x ;  .W.w 1.                          ",
"                                        > ; / c /.|.w.                          ",
"                                        u w 7.m @ a.9           8.              ",
"                                        ` ! R ~.W.]               / E.          ",
"                                    *XE.q.y n ' q `             ] E. .          ",
"                            _./ (.W.w.,.y.e.i e T.  W   9.    @.W 0 L           ",
"                            (.r.<.E.~.W.~.|.~.i ) w.T O.t W U +.> } Q           ",
"                          #X0X/ ~.e.}.y.}.0X X X$ ,.8.@.  T X.o.h aXaX          ",
"                          ^./. Xe Q.E.e.~.$X] a.<.o 5 K O.[ ..+.h T b.          ",
"                          Y.w.i _ s._ 9.~ p.9.q./ o $ u   2 _.Y.b .             ",
"                          $XR u a.=.y ) 7.w.y.W.[.6.$ @ o X.#.E sX              ",
"                          9.q ` ' i w.6.9.W.p.W. X/ 8.a.[.q.t ..                ",
"                            q R p 4 T.9.` 7.r.' 9.Q.a.Q.5 !.y                   ",
"                            n 6 y._ T.^ t p.3 6.!.Q.$Xp.|.7                     ",
"                            T.$ R ! y ~ 7.q =.8.3.[.9.#Xy.!                     ",
"                              0 ' y y 4 ,.R 9.~ q.a.|.9.q.                      ",
"                              | ` ~ p q % 9.! ' q.s.6.0.                        ",
"                                | 9.p 9 y q 7.s.q.` u                           ",
"                                1. .q u 6 ~ ` ` #                               ",
"                                ( e ^ ^ i P ) <.7.                              ",
"                                ,Xm.D.c.>.` _ <._                               ",
"                                < & f } ].OX].! M..X                            ",
"                              N z j s s , < = < z ) s N                         ",
"                              >XI.Z.C l.z.`.H.u.].l.    *                       ",
"                              <XF.I b.`.+X5XF h } v.D.    R.                    ",
"                              u.d.1 -.K.P.;XH j 5XqXH.1X  B                     ",
"                            7Xd.M a g g.>X1XA N.L.>XS.K.&XB                     ",
"                            j -.g.s %.:.S.R.'.rXZ.6Xb.x.N 6X5X                  ",
"                          B t.XXj 4.c.N f i.>XJ.A B.H.L.qXqXrX4X                ",
"                          k g.Z {.1X5XV L.B.@X:.v.z.b.J.2XrXiXiX                ",
"                        u.h.j *.&XqXM m.H.:XB.v F z.Z.+XwX5X5XuXrX              ",
"                        s = 1 4.> L.].rXwXwXx S v H v.:XrXqXwXwXuXyX            ",
"                        ;.{.f.1 s oX=XyX9Xc.  c D H z.P.L.wXrXrX3XiXpX          ",
"                        d.u.u %Xh oXj &.qX      c v F B.A.wX8XrXrXpXpXuX        ",
"                      *.@ *.1 oXj h &XwXS.        v A c.H.@X:X5X:XuXuXpX        ",
"                      - = f.K.g n 5XrX9Xx             c G rX2X5XB.wXpXrX        ",
"                      l Z i.A.oXn uXrXF.                C C F pXqXyX6XyX        ",
"                    7Xi.g k {.OXh.uX>X.                 v { v.5X2XqX>X:X        ",
"                  I.x.K.5.g f.;.2.uXS.                l.D B.L.2X5XH.+X          ",
"                6X6X%X5.j {.w k qX+X.                 n.v.L.>X4XZ.@Xv.          ",
"              7X<XOX&Xt.l.,X>XuXrX                    G v.+X>Xn.K.v.OX          ",
"              ).P.d.M ,X>XqXyX6X.                     G S.L.G.l.2XZ.            ",
"            V.5X2X;Xm :X6XqXP.G                       n.n.m.v.P.+XH.            ",
"            U.C.,X;X:X9XqXB.l.F                       l.A D H.L.v.H.            ",
"        tX5Xx.5XP.uXuXpX).A.D                       G H l.A.l.B.L.+X            ",
"      ,X>XD.qX2XtXuXtX;XF.F                         S +Xm.:.H.L.@X+X            ",
"    7X>X>XK.>XL.yX6X2XB.F                           Z.m.H l.B.>X+X$.            ",
"  eX-XC.qX;XF.B.2Xb.Z.:.                            G H A K.P.H.G.P.            ",
"  C.x.4XuXtX5XS.>XD {                             j.J x.J S.S.D.K.`.            ",
"  2XD.>XL.:XiXqX{ +X                                v.v.l.v.H.L.yX[ e.7.        ",
"    h 8 # +XuX2XB.z.                                    9 9 0 O @ E r.Q.!.a.    ",
"      r r + X O A.l.                                    u p Y E r U ^ p.<.p.s.  ",
"    m E ; Q k.: 2                                                               ",
"    E X Q ; }.W.[.W.                                                            ",
"      h d ~. Xr.,.3.q.                                                          ",
"        r.|.a.4 W.8.P r.                                                        ",
"          i     y                                                               ",
"                                                                                ",
"                                                                                ",
"                                                                                "
};
