/* XPM */
static char *c7527ada4f144fd1999daaecdd16b7f6kjRfACBzvvsSqNzF[] = {
/* columns rows colors chars-per-pixel */
"50 51 232 2 ",
"   c None",
".  c #001B43",
"X  c #001C42",
"o  c #001C43",
"O  c #001C44",
"+  c #001D45",
"@  c #001E45",
"#  c #001F46",
"$  c #051E47",
"%  c #00204A",
"&  c #00244C",
"*  c #00244D",
"=  c #00254E",
"-  c #01254E",
";  c #002852",
":  c #002A56",
">  c #002B58",
",  c #142352",
"<  c #172455",
"1  c #1E285B",
"2  c #1F295C",
"3  c #07315D",
"4  c #003061",
"5  c #053561",
"6  c #023965",
"7  c #053B68",
"8  c #242B60",
"9  c #30306A",
"0  c #064979",
"q  c #0B4A79",
"w  c #2F4A69",
"e  c #2C4C6D",
"r  c #334A69",
"t  c #3A516E",
"y  c #004584",
"u  c #0A4F80",
"i  c #0B5182",
"p  c #0F578A",
"a  c #136193",
"s  c #10669A",
"d  c #005FA9",
"f  c #166AA0",
"g  c #166AA2",
"h  c #1A79B3",
"j  c #1A7AB3",
"k  c #8653AE",
"l  c #9157B6",
"z  c #AA62CA",
"x  c #C36BDD",
"c  c #C26BDE",
"v  c #C26CDE",
"b  c #C36CDE",
"n  c #1D80B9",
"m  c #1D83BC",
"M  c #1E82BE",
"N  c #2180BA",
"B  c #0083D1",
"V  c #2088C5",
"C  c #2289C5",
"Z  c #248ECC",
"A  c #2A9AD8",
"S  c #299DDA",
"D  c #0087E0",
"F  c #0094FC",
"G  c #0099FE",
"H  c #0098FF",
"J  c #0099FF",
"K  c #009AFE",
"L  c #009BFE",
"P  c #009AFF",
"I  c #009CFE",
"U  c #009DFE",
"Y  c #009EFE",
"T  c #009FFE",
"R  c #00A0FE",
"E  c #00A1FE",
"W  c #00A2FE",
"Q  c #00A3FE",
"!  c #00A4FE",
"~  c #00A5FE",
"^  c #00A6FE",
"/  c #00A7FE",
"(  c #00A8FE",
")  c #00A9FE",
"_  c #00A9FF",
"`  c #01ABFE",
"'  c #00AAFF",
"]  c #00ABFF",
"[  c #00ACFE",
"{  c #01ACFE",
"}  c #00ACFF",
"|  c #03ACFE",
" . c #03ADFE",
".. c #04ADFE",
"X. c #06ACFE",
"o. c #06ADFE",
"O. c #04AEFE",
"+. c #07AEFE",
"@. c #08ADFE",
"#. c #0CADFE",
"$. c #0CAEFE",
"%. c #0DAEFE",
"&. c #0FAEFE",
"*. c #10AFFE",
"=. c #11AFFE",
"-. c #12AEFE",
";. c #12AFFE",
":. c #13AFFE",
">. c #14AFFE",
",. c #0FB0FE",
"<. c #10B0FE",
"1. c #13B0FE",
"2. c #14B1FE",
"3. c #15B1FE",
"4. c #16B1FE",
"5. c #18B0FE",
"6. c #18B1FE",
"7. c #19B1FE",
"8. c #1AB1FE",
"9. c #1BB1FE",
"0. c #1AB2FE",
"q. c #1BB2FE",
"w. c #1CB1FE",
"e. c #1CB2FE",
"r. c #1DB3FE",
"t. c #1EB2FE",
"y. c #1FB2FE",
"u. c #1FB4FE",
"i. c #2EA5E2",
"p. c #2CA4E5",
"a. c #2EA7E5",
"s. c #32AEEB",
"d. c #33AEEF",
"f. c #30AEF1",
"g. c #20B2FE",
"h. c #21B2FE",
"j. c #20B3FE",
"k. c #21B3FE",
"l. c #22B3FE",
"z. c #21B4FE",
"x. c #22B4FE",
"c. c #23B4FE",
"v. c #23B5FE",
"b. c #23B6FE",
"n. c #25B4FE",
"m. c #24B5FE",
"M. c #25B5FE",
"N. c #27B5FE",
"B. c #25B6FE",
"V. c #26B6FE",
"C. c #27B6FE",
"Z. c #28B5FE",
"A. c #28B6FE",
"S. c #28B7FE",
"D. c #29B7FE",
"F. c #2AB7FE",
"G. c #2BB7FE",
"H. c #2CB7FE",
"J. c #2BB8FE",
"K. c #2BBAFE",
"L. c #2CB8FE",
"P. c #2CB9FE",
"I. c #2FB8FE",
"U. c #2EB9FE",
"Y. c #2FB9FE",
"T. c #2CBAFE",
"R. c #2DBAFE",
"E. c #2EBAFE",
"W. c #2FBAFE",
"Q. c #33B5F3",
"!. c #3AB2F1",
"~. c #36B9F8",
"^. c #36B9F9",
"/. c #37B9FA",
"(. c #37BBFB",
"). c #30B9FE",
"_. c #31B9FE",
"`. c #30BAFE",
"'. c #31BAFE",
"]. c #30BBFE",
"[. c #31BBFE",
"{. c #32BAFE",
"}. c #32BBFE",
"|. c #34BBFD",
" X c #34BBFE",
".X c #31BCFE",
"XX c #33BCFE",
"oX c #33BDFE",
"OX c #34BCFE",
"+X c #35BCFE",
"@X c #34BDFE",
"#X c #35BDFE",
"$X c #36BCFE",
"%X c #37BCFE",
"&X c #36BDFE",
"*X c #37BDFE",
"=X c #34BEFE",
"-X c #35BEFE",
";X c #37BEFE",
":X c #38BAFB",
">X c #39BDFC",
",X c #38BCFD",
"<X c #38BDFD",
"1X c #38BCFE",
"2X c #38BDFE",
"3X c #3ABDFE",
"4X c #38BEFE",
"5X c #39BEFE",
"6X c #38BFFE",
"7X c #39BFFE",
"8X c #3ABEFE",
"9X c #3BBEFE",
"0X c #3ABFFE",
"qX c #58BFF4",
"wX c #44C0FD",
"eX c #46C1FE",
"rX c #4FC2FE",
"tX c #64C8FE",
"yX c #6AC9FE",
"uX c #6FCDFE",
"iX c #6FCEFE",
"pX c #96A3B3",
"aX c #B9C2CD",
"sX c #BAC4CE",
"dX c #8ED6FE",
"fX c #C3EAFE",
"gX c #D8F2FF",
"hX c #EAF6FE",
"jX c #FAFBFC",
"kX c #FCFDFE",
"lX c #FDFEFF",
"zX c #FEFFFF",
/* pixels */
"b b b b b b b b b b b b b b b b b b b b b b b b b b b b b b b b b b b b b b b b b b b b b b b b b b ",
"b b b b b b b b b b b b b b b b b b b b b b b b b b b b b b b b b b b b b b b b b b b b b b b b b b ",
"b b b b b b b b b b b b b b b b b b b b b b b b b b b b b b b b b b b b b b b b b b b b b b b b b b ",
"b b b b b b b b b b b b b b b b b b b b b b b b b b b b b b b b b b b b b b b b b b b b b b b b b b ",
"b b b b b b b b b b b b b b b b b b b b b b b b b b b b b b b b b b b b b b b b b b b b b b b b b b ",
"b b b b b b b b b b b b b b b b b b b b b b b b b b b b b b o o o o o b b b b b b b b b b b b b b b ",
"b b b b b b b b b b b b b b b b b b b b b b b b b b b b b o o wXqX0Xo o b b b b b b b b b b b b b b ",
"b b b b b b b b b b b b b b b b b b b b b b b b b b b b b o !.zXuX0X0Xo b b b b b b b b b b b b b b ",
"b b b b b b b b b b b b b b b b b b b b b b b b b b b o o o 0XuX0X0X0Xo b b b b b b b b b b b b b b ",
"b b b b b b b b b b b b b b b b b b b b b b b b b b o o 0X0X0X0X0X0Xs o b b b b b b b b b b b b b b ",
"b b b b b b b b b b b b b b b b b b b b b b b b b b o s.0X0Xo o o o o b b b b b b b b b b b b b b b ",
"b b b b b b b b b b b b b b b b b b b b b b b b b b o 0X0X0Xo b z z b b b b b b b b b b b b b b b b ",
"b b b b b b b b b b b b b b b b b b b b b b 9 o o o N 0X0X0Xo o o b b b b b b b b b b b b b b b b b ",
"b b b b b b b b b b b b b b b b b b b b o o o g :X0X0X;X;X;X0X(.- o   b b b b b b b b b b b b b b b ",
"b b b b b b b b b b b b b b b b b b 2 o i 0X0X0X;X_._._._._.;X;X0XS o   b b b b b b b b b b b b b b ",
"b b b b b b b b b b b b b b b b b o o 0XwXzXzXtXP.V.V.u.c.V.G._.;X;Xd.o x b b b b b b b b b b b b b ",
"b b b b b b b b b b b b b b b b o + 0XgXzXzXG.k.9.#.X.[ [ #.9.V.P.;X0Xu o b b b b b b b b b b b b b ",
"b b b b b b b b b b b b b b b o q 0XzXzXhXe.;.[ ` ~ ~ R ~ ~ ` ;.c.P.;X0Xo k b b b b b b b b b b b b ",
"b b b b b b b b b b b b b b o 3 0XzXzXyX4.[ ~ R R I I I I R R ` ;.V._.;Xn o b b b b b b b b b b b b ",
"b b b b b b b b b b b b b o o 0XzXzXG.;.` ~ R I I L L L L L I R ` e.J.;X0Xo b b b b b b b b b b b b ",
"b b b b b b b b b b b b b o 0XzXzXc.;.` R R I L y L L L L L I R ~ #.V.6 ;X-   b b b b b b b b b b b ",
"b b b b b b b b b b b b o p.0XzXP.;.` R I L L L . w + L L L L I R : o e  XM o b b b b b b b b b b b ",
"b b b b b b b b b b b l o 0XzXrXe.` ~ R L L L L > aXjXo L L L I 4 sXzXo ;X0Xo b b b b b b b b b b b ",
"b b b b b b b b b b b o (.fXdXc.#.~ R I L L L L L % t r L L L L o pXo G.oX0Xo b b b b b b b b b b b ",
"b b b b b b b b b b b o 0XzXP.9.` R I L L L L L L L F d L L L L D B X.V._.;Xo b b b b b b b b b b b ",
"b b b b b b b b b b o a ;X_.c.@.~ I L L L L L L L L L L L L L L I R [ c._.;Xo b b b b b b b b b b b ",
"b b b b b b b b b b o 0X;XP.e.` R I L L L L L L L L L L L L L L I ~ ` e._.;Xo b b b b b b b b b b b ",
"b b b b b b b b b   o ;X_.V.;.~ I L L L L L L L L L L L L L L L I R ` k._.;Xo b b b b b b b b b b b ",
"b b b b b b b o o - h ;XP.k.` ~ I L L L L L L L L L L L L L L L I R ` k._.;Xo b b b b b b b b b b b ",
"b b b b b b o o 0X0XM _.V.#.~ R L L L L L L L L L L L L L L L L I R ` e._.;Xo b b b b b b b b b b b ",
"b b b b b o o 0X0X0XoXJ.9.` R I L L L L L L L L L L L L L L L L I R ` e.P.;Xo o b b b b b b b b b b ",
"b b b b b o 0X0X0X;X_.V.,.` R I L L L L L L L L L L L L L L L L I ~ ` e.J.;Xp.o o b b b b b b b b b ",
"b b b b b o 0X0X0X;X_.V.1.` R R I I L I I L L L L L L L L I I I R ~ X.k.P.0X0X0Xo , b b b b b b b b ",
"b b b b b o 0X0X0X;X_.H.e.X.~ R R I R R R R R I I I I I I R R ~ ` X.9.V._.;X0X0XV o b b b b b b b b ",
"b b b b b o 5 0X0X0X;X_.V.9.X.` ` ` ` ` ` ` ~ ~ R R R R ~ ` ` #.4.e.V.P.oX;X0X0Xi.o b b b b b b b b ",
"b b b b b b o ; 0X0X0Xf._.G.V.e.9.4.9.9.9.9.1.#.[ ` ` ` [ >.e.V.G.P._. X;X0X0X0X7 o b b b b b b b b ",
"b b b b b b b o o o - h ;XoX_.P.J.P.J.P.P.J.G.V.k.9.9.e.c.G.P._.oX;X;X;X0X0X0XA o b b b b b b b b b ",
"b b b b b b b b b b 1 o 0X0X;X;XoXoX;X;X;X;X;XoXP.P.P.P._.oX;X;X0X+ o o 0 p o o b b b b b b b b b b ",
"b b b b b b b b b b b o o g Q.0X0X(.Z o o - 0X;X;X;X;X;X;X0X0Xo o $ b   8 .   b b b b b b b b b b b ",
"b b b b b b b b b b b b x o o o o o o < b . o + (.0X0X0XV o o o b b b b b b b b b b b b b b b b b b ",
"b b b b b b b b b b b b b b b b b b b b b b b o o o o o o   b b b b b b b b b b b b b b b b b b b b ",
"b b b b b b b b b b b b b b b b b b b b b b b b b b b b b b b b b b b b b b b b b b b b b b b b b b ",
"b b b b b b b b b b b b b b b b b b b b b b b b b b b b b b b b b b b b b b b b b b b b b b b b b b ",
"b b b b b b b b b b b b b b b b b b b b b b b b b b b b b b b b b b b b b b b b b b b b b b b b b b ",
"b b b b b b b b b b b b b b b b b b b b b b b b b b b b b b b b b b b b b b b b b b b b b b b b b b ",
"b b b b b b b b b b b b b b b b b b b b b b b b b b b b b b b b b b b b b b b b b b b b b b b b b b ",
"b b b b b b b b b b b b b b b b b b b b b b b b b b b b b b b b b b b b b b b b b b b b b b b b b b ",
"b b b b b b b b b b b b b b b b b b b b b b b b b b b b b b b b b b b b b b b b b b b b b b b b b b ",
"b b b b b b b b b b b b b b b b b b b b b b b b b b b b b b b b b b b b b b b b b b b b b b b b b b ",
"b b b b b b b b b b b b b b b b b b b b b b b b b b b b b b b b b b b b b b b b b b b b b b b b b b ",
"b b b b b b b b b b b b b b b b b b b b b b b b b b b b b b b b b b b b b b b b b b b b b b b b b b "
};
