/* XPM */
static char *_3ce2d92208447e9dfc97aa26af481cbHcvgwQi8sDQByPaT[] = {
/* columns rows colors chars-per-pixel */
"40 40 86 1 ",
"  c None",
". c black",
"X c #010101",
"o c #040301",
"O c #030304",
"+ c gray2",
"@ c #050506",
"# c #050607",
"$ c #060707",
"% c #050708",
"& c #060708",
"* c #060709",
"= c #08090B",
"- c #0B0C0E",
"; c #0B0D0F",
": c #140F06",
"> c #191408",
", c #141516",
"< c #111418",
"1 c #121518",
"2 c #151A1F",
"3 c #18191B",
"4 c #3B1414",
"5 c #2C210A",
"6 c #161B20",
"7 c #22272D",
"8 c #27313A",
"9 c #2A333D",
"0 c #32353A",
"q c #461818",
"w c #491F1F",
"e c #531C1D",
"r c #705926",
"t c #2D3641",
"y c #313942",
"u c #323C48",
"i c #323D49",
"p c #363F48",
"a c #36414E",
"s c #374351",
"d c #374451",
"f c #394654",
"g c #3C4957",
"h c #3E4A59",
"j c #3E4B5A",
"k c #414B57",
"l c #414E5D",
"z c #495562",
"x c #4D5A67",
"c c #4E5A68",
"v c #515965",
"b c #515E6C",
"n c #52606E",
"m c #556372",
"M c #576574",
"N c #62646A",
"B c #636D7C",
"V c #89661E",
"C c #D83941",
"Z c #DD3E44",
"A c #E6494D",
"S c #E04D4E",
"D c #ED5152",
"F c #EE5253",
"G c #EF5455",
"H c #EF5556",
"J c #F15758",
"K c #F06464",
"L c #FE6A6A",
"P c #FF6B6B",
"I c #F4B537",
"U c #F5B73B",
"Y c #C69D43",
"T c #F6BB40",
"R c #F2C153",
"E c #FAC755",
"W c #FDC955",
"Q c #FEC956",
"! c #FECA57",
"~ c #5098F3",
"^ c #54A0FF",
"/ c #AABCD6",
"( c #C7D2E5",
") c #CBD5E7",
"_ c #D7DFEF",
"` c #E4EAF8",
/* pixels */
"                                        ",
"                                        ",
"                                        ",
"                                        ",
"                                        ",
"                                        ",
"                                        ",
"                                        ",
"                               ...      ",
"                              .....     ",
" ....                     ...  ..~..    ",
" .FF..          ........ ..j1. .I.^..   ",
" ..FJ.....     ..IIT!!!.....jy..I....   ",
"  ..FL..d.... ..IIU!!!!!!o...j.5I!!R:.  ",
"   .eFL..ddd...III!!!!!!...0...I!!!!!.  ",
"    ....g.8ddj..III!!!..$($..I!!!!!!..  ",
"      ..jj..d2...III..3(...I!!!!!!!..p. ",
"        .1j...B/..I..(,...Y!!!!!!!!.... ",
"         ..jm.$/(...(..CZS..E!!!r....   ",
"    ..... .....//(.(N.CCFFFF.>E..Vo..   ",
"   ..jMMx..   ../v...CCFFFFFF..j.II!!.  ",
"  .jlM7kMMO........f.CCFFFFFF..t=.....  ",
" .jj.....;O..(((.ujM..CAFFFF.$;.j...MM. ",
"..j..   ...(()``.jjMM..CFFFF.s..j. ..M..",
".jj.  ...((_````.jjMM*...FFq.. .u.. .MM.",
".j6. ..(((```......MM.FF....j.  .j.  MM.",
".j9.  .........FGL...wGLLLL.j.  ...  MM.",
".aj.     ..M. .4FLLLLLLLLLL.j..     .Mz.",
" .j*.   ..MM.  .FFLLLLLLLLK.jn..   .*M. ",
" .*jb....MM.   ......LL......jM....cM=. ",
"  ..jMMMMM..                ..jMMMMM..  ",
"   .......                    .......   ",
"      ..                        ..      ",
"                                        ",
"                                        ",
"                                        ",
"                                        ",
"                                        ",
"                                        ",
"                                        "
};
