/* XPM */
static char *_8b0f00b9b5841e1ed2738e2a37aca2af0zdzO9s6Ty362BL[] = {
/* columns rows colors chars-per-pixel */
"40 40 81 1 ",
"  c None",
". c black",
"X c #090807",
"o c #0A0A08",
"O c #0D0C0E",
"+ c #242024",
"@ c #272328",
"# c #28242A",
"$ c #2A262B",
"% c #332E25",
"& c #302D30",
"* c #302E31",
"= c #38323A",
"- c #3D363F",
"; c #49414B",
": c #4D494F",
"> c #5F594C",
", c #5F5A4C",
"< c #4D4550",
"1 c #4F4752",
"2 c #504C51",
"3 c #564C58",
"4 c #584E5B",
"5 c #594F5C",
"6 c #5A515B",
"7 c #5B515E",
"8 c #5C545E",
"9 c #6C614F",
"0 c #5D5360",
"q c #5F5562",
"w c #7F7766",
"e c #6F6571",
"r c #716A72",
"t c #706B72",
"y c #736975",
"u c #746A76",
"i c #7F7C7F",
"p c #827A67",
"a c #857D6B",
"s c #8B836F",
"d c #7E7780",
"f c #817A83",
"g c #857E87",
"h c #89878A",
"j c #989898",
"k c gray60",
"l c #B7AC92",
"z c #BBB095",
"x c #A7A6A7",
"c c #B3B1B3",
"v c #B5B2B6",
"b c #B7B4B8",
"n c #D9C39F",
"m c #D5C9AA",
"M c #D6C9AB",
"N c #E5CEA8",
"B c #F4DBB3",
"V c #F5DFB7",
"C c #F5DEB8",
"Z c #F5DFB8",
"A c #F6E2BC",
"S c #C8C5C9",
"D c #D8D5D8",
"F c #D8D6D9",
"G c #D9D7DA",
"H c #DAD8DB",
"J c #DBD9DC",
"K c #DCD9DC",
"L c #DDDBDD",
"P c #DEDBDE",
"I c #DEDCDF",
"U c #DFDCDF",
"Y c #F2E4C2",
"T c #F3E4C2",
"R c #F7E5C1",
"E c #F7E6C2",
"W c #F9EAC6",
"Q c #F9EAC7",
"! c #EBE9EB",
"~ c #ECEAEC",
"^ c white",
/* pixels */
"                                        ",
"                                        ",
"                                        ",
"              ............              ",
"           ...pQQQQ..QQQQa...           ",
"         ...QQQQBBB..BBBQQQQ...         ",
"        ..QQQBBBB%....%BBBBQQQ..        ",
"       .XQQBBB....#<<@....BBBQQo.       ",
"      .MQVBB..=0000000000-..BBCQM.      ",
"     ...BB..3000000000000004..BB...     ",
"    .wQ....000000000000000000....Qs.    ",
"   ..QBB..0000000qeeeeq0000000..BBQ..   ",
"   .QQB..000000eeeeeeeeee000000..BQQ.   ",
"  .lQB9.000000eeeeeeeeeeee0000000BBQz.  ",
"  .QBB.000000eeeeeeeeeeeeee000000.BBQ.  ",
" .>QB..00000eeeeefggggfeeeee00000..BQ>. ",
" .QEB.00000eeeeegg*..*ggeeeee00000.BEQ. ",
" .QBN.00000eeeeg2..jj..:geeee00000.nBQ. ",
"..QB.;0000eeeegt.^^^^^^.tgeeee0000<.BQ..",
".YQB.00000eeeyg.^^^^^^^^.gueee00000.BQY.",
".QQB.00000eeegf.^^^^^^^^.dgeee00000.BQQ.",
".QAB.00000eeeg..^^^^^^^^..geee00000.BAQ.",
".....00000eeeg..^^^^^^^^..geee00000.....",
".QCB.00000eeeg..^^^^^^^^..geee00000.BCQ.",
".QCB000000eeeg..^^^^^^^^..geee00000.BCQ.",
".QCB000000eeeg............geee00000.BCQ.",
".QCB.00000eee..SHH~~~~HHS..eee00000.BCQ.",
".QCB.00000eeO.SHHP~cx~JHHS.Oee00000.BCQ.",
".QCB.00000e#.SGHH~~~~~~HHGS.+e00000.BCQ.",
".QCB.000008.SSHHH~~!!~~HHHSS.600000.BCQ.",
".QCB.00007.SSHHHP~~..~~PHHHSS.50000.BCQ.",
".QCB.0000.SSGHHH~~~~~~~~HHHGSS.0000.BCQ.",
".QCB.000.SSSHHHH~~~~~~~~HHHHSSS.000.BCQ.",
".QCB.00.SSSHHHHI~~~..~~~IHHHHSSS.00.BCQ.",
".QCB.0.vSSHHHHH~~~~..~~~~HHHHHSSb.0.BCQ.",
".QCB..iSSSHHHHH~~~~~~~~~~HHHHHSSSh..BCQ.",
"........................................",
"                                        ",
"                                        ",
"                                        "
};
